<svg width="248" height="238" viewBox="0 0 248 238" fill="none" xmlns="http://www.w3.org/2000/svg">
<path d="M124 238C120.163 238.006 116.46 236.302 113.607 233.217L90.0775 207.937C88.3175 205.784 86.2214 204.069 83.9094 202.891C81.5973 201.712 79.1146 201.094 76.6033 201.07H31.1903C22.9181 201.07 14.9847 197.12 9.13542 190.091C3.28611 183.061 0 173.526 0 163.585L0.0748542 37.485C0.0748542 27.5434 3.36096 18.0089 9.21027 10.9791C15.0596 3.9493 22.9929 0 31.2651 0H216.81C225.082 0 233.015 3.9493 238.865 10.9791C244.714 18.0089 248 27.5434 248 37.485V163.6C248 173.541 244.714 183.076 238.865 190.106C233.015 197.135 225.082 201.085 216.81 201.085H171.284C168.821 201.071 166.38 201.649 164.105 202.785C161.829 203.92 159.766 205.59 158.035 207.697L134.393 233.187C131.544 236.283 127.841 237.998 124 238ZM31.2651 14.979C26.3018 14.979 21.5418 17.3486 18.0322 21.5665C14.5226 25.7844 12.551 31.5051 12.551 37.47L12.4761 163.585C12.4761 169.55 14.4478 175.27 17.9574 179.488C21.4669 183.706 26.227 186.076 31.1903 186.076H76.5908C80.6867 186.063 84.744 187.026 88.5281 188.91C92.3121 190.794 95.7477 193.561 98.6361 197.051L121.892 222.046C122.461 222.666 123.201 223.009 123.969 223.009C124.737 223.009 125.477 222.666 126.046 222.046L149.426 196.826C155.257 189.947 163.101 186.092 171.272 186.091H216.797C221.761 186.091 226.521 183.721 230.03 179.503C233.54 175.285 235.511 169.565 235.511 163.6V37.47C235.511 31.5051 233.54 25.7844 230.03 21.5665C226.521 17.3486 221.761 14.979 216.797 14.979H31.2651Z" fill="black"/>
</svg>
