<svg width="257" height="251" viewBox="0 0 257 251" fill="none" xmlns="http://www.w3.org/2000/svg">
<path d="M128.5 0.583344C111.702 0.583344 95.068 3.89201 79.5485 10.3204C64.0289 16.7488 49.9275 26.1711 38.0493 38.0493C14.0603 62.0383 0.583374 94.5744 0.583374 128.5C0.583374 185.039 37.2955 233.008 88.0784 250.021C94.4742 251.044 96.5209 247.079 96.5209 243.625V222.007C61.088 229.682 53.5409 204.866 53.5409 204.866C47.6567 190.028 39.3421 186.062 39.3421 186.062C27.7017 178.132 40.2375 178.387 40.2375 178.387C53.0292 179.283 59.8088 191.563 59.8088 191.563C70.9375 211.006 89.7413 205.25 97.0325 202.18C98.1838 193.865 101.51 188.237 105.091 185.039C76.6938 181.841 46.8892 170.84 46.8892 122.104C46.8892 107.905 51.75 96.5208 60.0646 87.4388C58.7855 84.2408 54.3084 70.9375 61.3438 53.6688C61.3438 53.6688 72.0888 50.215 96.5209 66.7163C106.626 63.9021 117.627 62.495 128.5 62.495C139.373 62.495 150.374 63.9021 160.479 66.7163C184.911 50.215 195.656 53.6688 195.656 53.6688C202.692 70.9375 198.215 84.2408 196.935 87.4388C205.25 96.5208 210.111 107.905 210.111 122.104C210.111 170.968 180.178 181.713 151.653 184.911C156.258 188.877 160.479 196.68 160.479 208.576V243.625C160.479 247.079 162.526 251.172 169.05 250.021C219.833 232.88 256.417 185.039 256.417 128.5C256.417 111.702 253.108 95.068 246.68 79.5484C240.251 64.0288 230.829 49.9274 218.951 38.0493C207.073 26.1711 192.971 16.7488 177.452 10.3204C161.932 3.89201 145.298 0.583344 128.5 0.583344Z" fill="black"/>
</svg>
