<svg width="237" height="237" viewBox="0 0 237 237" fill="none" xmlns="http://www.w3.org/2000/svg">
<path d="M27.3906 0.59375C20.2993 0.644264 13.5127 3.48372 8.4982 8.4982C3.48372 13.5127 0.644264 20.2993 0.59375 27.3906V209.609C0.59375 224.262 12.7381 236.406 27.3906 236.406H209.609C224.262 236.406 236.406 224.262 236.406 209.609V27.3906C236.406 12.7381 224.262 0.59375 209.609 0.59375H27.3906ZM27.3906 22.0312H209.609C212.664 22.0312 214.969 24.3358 214.969 27.3906V209.609C214.983 210.317 214.855 211.021 214.591 211.677C214.326 212.334 213.932 212.931 213.432 213.432C212.931 213.932 212.334 214.326 211.677 214.591C211.021 214.855 210.317 214.983 209.609 214.969H27.3906C26.6824 214.985 25.9783 214.857 25.3208 214.594C24.6632 214.33 24.066 213.936 23.5651 213.435C23.0642 212.934 22.67 212.337 22.4064 211.679C22.1427 211.022 22.0151 210.318 22.0312 209.609V27.3906C22.0312 24.3358 24.3358 22.0312 27.3906 22.0312ZM58.8823 40.4568C56.4259 40.3975 53.9825 40.8302 51.6959 41.7292C49.4092 42.6283 47.3254 43.9756 45.5672 45.692C43.8089 47.4083 42.4117 49.459 41.4578 51.7233C40.5038 53.9876 40.0124 56.4199 40.0124 58.877C40.0124 61.334 40.5038 63.7663 41.4578 66.0306C42.4117 68.295 43.8089 70.3456 45.5672 72.0619C47.3254 73.7783 49.4092 75.1256 51.6959 76.0247C53.9825 76.9238 56.4259 77.3564 58.8823 77.2971C63.6907 77.1811 68.2631 75.1895 71.6229 71.7477C74.9827 68.3059 76.8635 63.6868 76.8635 58.877C76.8635 54.0672 74.9827 49.448 71.6229 46.0062C68.2631 42.5644 63.6907 40.5728 58.8823 40.4568ZM155.673 89.3557C140.313 89.3557 130.098 97.7699 125.874 105.766H125.199V91.7031H95.0474V193.531H126.539V143.282C126.539 130.012 129.176 117.16 145.629 117.16C161.836 117.16 162.05 132.145 162.05 143.957V193.531H193.531V137.59C193.531 110.214 187.7 89.3557 155.673 89.3557ZM43.4688 91.7031V193.531H75.2927V91.7031H43.4688Z" fill="black"/>
</svg>
