<svg width="223" height="223" viewBox="0 0 223 223" fill="none" xmlns="http://www.w3.org/2000/svg">
<path d="M10.4531 223H108.016C108.94 223 109.826 222.633 110.479 221.979C111.133 221.326 111.5 220.44 111.5 219.516C111.5 218.592 111.133 217.705 110.479 217.052C109.826 216.398 108.94 216.031 108.016 216.031H10.4531C9.52901 216.031 8.64275 215.664 7.9893 215.011C7.33585 214.357 6.96875 213.471 6.96875 212.547V10.4531C6.96875 9.52901 7.33585 8.64275 7.9893 7.9893C8.64275 7.33585 9.52901 6.96875 10.4531 6.96875H156.797C157.721 6.96875 158.607 7.33585 159.261 7.9893C159.914 8.64275 160.281 9.52901 160.281 10.4531V45.2969C160.281 46.221 160.648 47.1073 161.302 47.7607C161.955 48.4141 162.842 48.7812 163.766 48.7812C164.69 48.7812 165.576 48.4141 166.229 47.7607C166.883 47.1073 167.25 46.221 167.25 45.2969V10.4531C167.25 4.68997 162.56 0 156.797 0H10.4531C4.68997 0 0 4.68997 0 10.4531V212.547C0 218.31 4.68997 223 10.4531 223Z" fill="black"/>
<path d="M125.438 73.1719V212.547C125.438 218.31 130.127 223 135.891 223H212.547C218.31 223 223 218.31 223 212.547V73.1719C223 67.4087 218.31 62.7188 212.547 62.7188H135.891C130.127 62.7188 125.438 67.4087 125.438 73.1719ZM216.031 73.1719V212.547C216.031 213.471 215.664 214.357 215.011 215.011C214.357 215.664 213.471 216.031 212.547 216.031H135.891C134.967 216.031 134.08 215.664 133.427 215.011C132.773 214.357 132.406 213.471 132.406 212.547V73.1719C132.406 72.2478 132.773 71.3615 133.427 70.708C134.08 70.0546 134.967 69.6875 135.891 69.6875H212.547C213.471 69.6875 214.357 70.0546 215.011 70.708C215.664 71.3615 216.031 72.2478 216.031 73.1719Z" fill="black"/>
<path d="M83.625 202.094C87.4737 202.094 90.5938 198.974 90.5938 195.125C90.5938 191.276 87.4737 188.156 83.625 188.156C79.7763 188.156 76.6562 191.276 76.6562 195.125C76.6562 198.974 79.7763 202.094 83.625 202.094Z" fill="black"/>
<path d="M174.219 202.094C178.067 202.094 181.188 198.974 181.188 195.125C181.188 191.276 178.067 188.156 174.219 188.156C170.37 188.156 167.25 191.276 167.25 195.125C167.25 198.974 170.37 202.094 174.219 202.094Z" fill="black"/>
</svg>
